<svg width="51" height="51" viewBox="0 0 51 51" fill="none" xmlns="http://www.w3.org/2000/svg">
<path d="M25.5 4.25C17.2763 4.25 10.625 10.9013 10.625 19.125C10.625 30.2812 25.5 46.75 25.5 46.75C25.5 46.75 40.375 30.2812 40.375 19.125C40.375 10.9013 33.7237 4.25 25.5 4.25ZM25.5 24.4375C24.091 24.4375 22.7398 23.8778 21.7435 22.8815C20.7472 21.8852 20.1875 20.534 20.1875 19.125C20.1875 17.716 20.7472 16.3648 21.7435 15.3685C22.7398 14.3722 24.091 13.8125 25.5 13.8125C26.909 13.8125 28.2602 14.3722 29.2565 15.3685C30.2528 16.3648 30.8125 17.716 30.8125 19.125C30.8125 20.534 30.2528 21.8852 29.2565 22.8815C28.2602 23.8778 26.909 24.4375 25.5 24.4375Z" fill="#FFE100"/>
</svg>
